<?xml version="1.0" encoding="UTF-8"?>
<svg width="186px" height="186px" viewBox="0 0 186 186" version="1.1" xmlns="http://www.w3.org/2000/svg" xmlns:xlink="http://www.w3.org/1999/xlink">
    <!-- Generator: Sketch 42 (36781) - http://www.bohemiancoding.com/sketch -->
    <title>logo</title>
    <desc>Created with Sketch.</desc>
    <defs>
        <polygon id="path-1" points="0 186 186 186 186 0 0 0"></polygon>
    </defs>
    <g id="Page-1" stroke="none" stroke-width="1" fill="none" fill-rule="evenodd">
        <g id="3" transform="translate(-60.000000, -97.000000)">
            <g id="logo" transform="translate(60.000000, 97.000000)">
                <g id="Page-1">
                    <polygon id="Fill-1" fill="#000000" points="1.42108547e-14 186 186 186 186 0 1.42108547e-14 0"></polygon>
                    <polygon id="Fill-2" fill="#FFFFFF" points="10.8344244 67.3399642 36.4958715 67.3399642 36.4958715 72.7112813 26.7321317 72.7112813 26.7321317 93.1097854 20.5981642 93.1097854 20.5981642 72.7112813 10.8344244 72.7112813"></polygon>
                    <g id="Group-35" transform="translate(0.000000, 0.000000)">
                        <path d="M35.9852537,84.5441073 L35.9852537,74.3085626 L41.901465,74.3085626 L41.901465,84.1085951 C41.901465,86.5039122 43.2080016,88.1370829 45.6401154,88.1370829 C48.0717252,88.1370829 49.4145545,86.5039122 49.4145545,84.1085951 L49.4145545,74.3085626 L55.3307659,74.3085626 L55.3307659,84.5441073 C55.3307659,89.8433431 51.991335,93.5451967 45.7489935,93.5451967 C39.3609772,93.5451967 35.9852537,89.8433431 35.9852537,84.5441073 Z" id="Fill-3" fill="#FFFFFF"></path>
                        <path d="M65.1646715,81.2411203 L73.4399073,81.2411203 C72.9318098,79.2808114 71.4080211,78.1199496 69.3025415,78.1199496 C67.1607691,78.1199496 65.6732732,79.3176081 65.1646715,81.2411203 M79.3561187,83.8179008 L79.3561187,84.8346 L65.0557935,84.8346 C65.346135,87.1936244 67.1244764,88.9719659 69.701761,88.9719659 C71.9882,88.9719659 73.0769805,87.919478 73.3315333,87.5202585 L79.1746553,87.5202585 C78.8843138,89.7704049 76.1986553,93.5816407 69.701761,93.5816407 C63.3132407,93.5816407 59.2484602,89.4437707 59.2484602,83.7090228 C59.2484602,77.7565187 63.3863301,73.8369089 69.3025415,73.8369089 C75.3271268,73.8369089 79.3561187,77.6839333 79.3561187,83.8179008" id="Fill-5" fill="#FFFFFF"></path>
                        <path d="M89.8436959,85.9593203 C85.2340211,85.6689789 82.2943138,83.709174 82.2943138,79.8253528 C82.2943138,76.0872065 85.596948,73.8002634 91.0418585,73.8002634 C98.1194358,73.8002634 100.079241,77.4658244 100.47846,79.2809626 L94.2719073,79.2809626 C94.0178585,78.9548325 93.1831268,77.974426 91.0055659,77.974426 C89.263013,77.974426 88.2831106,78.555613 88.2831106,79.462426 C88.2831106,80.2245724 88.8642976,80.8052553 90.4974683,80.950426 C91.3316959,81.0593041 91.9849642,81.0961008 92.9648667,81.1681821 C98.6275333,81.5674016 100.805094,83.5277106 100.805094,87.4473203 C100.805094,91.2590602 97.8290943,93.6175805 91.7309154,93.6175805 C84.3992894,93.6175805 82.2217285,89.5165073 81.8945902,87.7744585 L88.2468179,87.7744585 C88.3914846,88.173678 89.263013,89.3713366 91.7309154,89.3713366 C93.8001024,89.3713366 94.7800049,88.7180683 94.7800049,87.8107512 C94.7800049,86.9392228 94.2719073,86.3227512 92.4930618,86.1775805 L89.8436959,85.9593203 Z" id="Fill-7" fill="#FFFFFF"></path>
                        <path d="M114.159894,78.9545805 C111.437943,78.9545805 109.69539,80.9869707 109.69539,83.709426 C109.69539,86.4313772 111.437943,88.4637675 114.159894,88.4637675 C116.845553,88.4637675 118.588106,86.4676699 118.588106,83.709426 C118.588106,80.9869707 116.845553,78.9545805 114.159894,78.9545805 M112.344756,93.5089545 C107.590415,93.5089545 103.742886,89.8065967 103.742886,83.709426 C103.742886,77.6475398 107.626707,73.9451821 112.381553,73.9451821 C116.337455,73.9451821 118.188382,76.3410033 118.51552,76.9216862 L118.51552,66.3958 L124.395439,66.3958 L124.395439,93.109735 L118.588106,93.109735 L118.588106,90.350987 C118.224675,90.9684667 116.337455,93.5089545 112.344756,93.5089545" id="Fill-9" fill="#FFFFFF"></path>
                        <path d="M138.874859,78.9545805 C136.261785,78.9545805 134.519233,81.0232634 134.519233,83.709426 C134.519233,86.3950846 136.261785,88.4637675 138.874859,88.4637675 C141.452143,88.4637675 143.157899,86.3950846 143.157899,83.709426 C143.157899,81.0232634 141.452143,78.9545805 138.874859,78.9545805 M137.096517,93.5089545 C132.377964,93.5089545 128.567233,89.8065967 128.567233,83.709426 C128.567233,77.6475398 132.377964,73.9451821 137.13281,73.9451821 C140.979834,73.9451821 142.75868,76.3047106 143.085818,76.9216862 L143.085818,74.308613 L148.965233,74.308613 L148.965233,93.109735 L143.157899,93.109735 L143.157899,90.350987 C142.831265,90.9684667 141.05242,93.5089545 137.096517,93.5089545" id="Fill-11" fill="#FFFFFF"></path>
                        <polygon id="Fill-13" fill="#FFFFFF" points="162.863717 100.477805 156.94801 100.477805 160.105473 92.8195447 151.684563 74.3087642 158.36292 74.3087642 163.081977 85.668878 167.800026 74.3087642 173.753034 74.3087642"></polygon>
                        <path d="M25.7533382,106.756439 C23.9870943,106.756439 22.837322,108.111366 22.837322,109.87761 C22.837322,111.643854 23.9870943,112.999285 25.7533382,112.999285 C27.4575821,112.999285 28.5871919,111.643854 28.5871919,109.87761 C28.5871919,108.111366 27.4575821,106.756439 25.7533382,106.756439 M25.0552081,115.299333 C22.3851756,115.299333 20.1672894,113.286602 20.1672894,109.87761 C20.1672894,106.509951 22.3851756,104.45639 25.0753707,104.45639 C27.2730943,104.45639 28.3205415,105.811821 28.5463626,106.242797 L28.5463626,104.682211 L31.1745577,104.682211 L31.1745577,115.073512 L28.5670293,115.073512 L28.5670293,113.43026 C28.3613707,113.862244 27.3345902,115.299333 25.0552081,115.299333" id="Fill-15" fill="#FFFFFF"></path>
                        <path d="M42.7574179,115.073512 L39.8822309,115.073512 C37.4385236,115.073512 36.2887512,113.903073 36.2887512,111.684683 L36.2887512,106.920764 L33.4337268,106.920764 L33.4337268,104.682211 L36.2887512,104.682211 L36.2887512,100.492927 L38.9174504,100.492927 L38.9174504,104.682211 L42.7574179,104.682211 L42.7574179,106.920764 L38.9174504,106.920764 L38.9174504,110.883724 C38.9174504,112.178163 39.348426,112.73213 40.7653528,112.73213 L42.7574179,112.73213 L42.7574179,115.073512 Z" id="Fill-17" fill="#FFFFFF"></path>
                        <path d="M58.9195073,115.073512 L56.0448244,115.073512 C53.600613,115.073512 52.4503366,113.903073 52.4503366,111.684683 L52.4503366,106.920764 L49.5963203,106.920764 L49.5963203,104.682211 L52.4503366,104.682211 L52.4503366,100.492927 L55.0790358,100.492927 L55.0790358,104.682211 L58.9195073,104.682211 L58.9195073,106.920764 L55.0790358,106.920764 L55.0790358,110.883724 C55.0790358,112.178163 55.5100114,112.73213 56.9274423,112.73213 L58.9195073,112.73213 L58.9195073,115.073512 Z" id="Fill-19" fill="#FFFFFF"></path>
                        <path d="M64.1974211,115.073512 L61.5893886,115.073512 L61.5893886,99.959122 L64.1974211,99.959122 L64.1974211,106.427789 C64.5870634,105.688829 65.7580065,104.45639 67.6472423,104.45639 C70.2557789,104.45639 71.9806894,106.366293 71.9806894,109.015154 L71.9806894,115.073512 L69.3318276,115.073512 L69.3318276,109.528797 C69.3318276,107.885545 68.3453724,106.797268 66.8054537,106.797268 C65.2242016,106.797268 64.1974211,107.926878 64.1974211,109.528797 L64.1974211,115.073512 Z" id="Fill-21" fill="#FFFFFF"></path>
                        <path d="M77.2583008,108.501966 L82.6800244,108.501966 C82.3100407,107.187868 81.3245935,106.448405 79.9898293,106.448405 C78.5723984,106.448405 77.5864472,107.228698 77.2583008,108.501966 M85.4317154,110.021722 L85.4317154,110.309039 L77.1761382,110.309039 C77.2991301,111.931624 78.4695691,113.163559 80.1949837,113.163559 C81.8583984,113.163559 82.5363659,112.321771 82.7208537,112.034454 L85.3087236,112.034454 C85.1443984,113.102063 83.7269675,115.340112 80.1949837,115.340112 C76.8066585,115.340112 74.547439,112.999234 74.547439,109.877559 C74.547439,106.653559 76.8066585,104.415511 79.9898293,104.415511 C83.1931626,104.415511 85.4317154,106.61273 85.4317154,110.021722" id="Fill-23" fill="#FFFFFF"></path>
                        <path d="M101.20386,109.877811 C101.20386,108.111567 100.012754,106.756641 98.2671772,106.756641 C96.5009333,106.756641 95.3098276,108.132234 95.3098276,109.877811 C95.3098276,111.623389 96.5009333,112.998982 98.2671772,112.998982 C100.012754,112.998982 101.20386,111.644055 101.20386,109.877811 M103.853226,109.877811 C103.853226,113.040315 101.429177,115.340364 98.2671772,115.340364 C95.0633398,115.340364 92.6604618,113.040315 92.6604618,109.877811 C92.6604618,106.715307 95.0633398,104.415259 98.2671772,104.415259 C101.429177,104.415259 103.853226,106.715307 103.853226,109.877811" id="Fill-25" fill="#FFFFFF"></path>
                        <path d="M110.814566,106.900198 L110.814566,115.073613 L108.185867,115.073613 L108.185867,106.900198 L105.33185,106.900198 L105.33185,104.682312 L108.185867,104.682312 L108.185867,103.162556 C108.185867,101.150328 109.295314,99.9587187 111.656859,99.9587187 L115.16868,99.9587187 L115.16868,102.053613 L112.457818,102.053613 C111.308046,102.053613 110.814566,102.628247 110.814566,103.676198 L110.814566,104.682312 L114.532046,104.682312 L114.532046,106.900198 L110.814566,106.900198 Z" id="Fill-27" fill="#FFFFFF"></path>
                        <path d="M119.419611,106.900198 L119.419611,115.073613 L116.790912,115.073613 L116.790912,106.900198 L113.936392,106.900198 L113.936392,104.682312 L116.790912,104.682312 L116.790912,103.162556 C116.790912,101.150328 117.899855,99.9587187 120.261904,99.9587187 L123.773725,99.9587187 L123.773725,102.053613 L121.062359,102.053613 C119.912587,102.053613 119.419611,102.628247 119.419611,103.676198 L119.419611,104.682312 L123.136587,104.682312 L123.136587,106.900198 L119.419611,106.900198 Z" id="Fill-29" fill="#FFFFFF"></path>
                        <mask id="mask-2" fill="white">
                            <use xlink:href="#path-1"></use>
                        </mask>
                        <g id="Clip-32"></g>
                        <path d="M125.437593,115.073512 L128.066293,115.073512 L128.066293,104.682211 L125.437593,104.682211 L125.437593,115.073512 Z M125.375593,103.018797 L128.107122,103.018797 L128.107122,99.897626 L125.375593,99.897626 L125.375593,103.018797 Z" id="Fill-31" fill="#FFFFFF" mask="url(#mask-2)"></path>
                        <path d="M136.156637,106.735772 C134.554719,106.735772 133.44628,108.132537 133.44628,109.87761 C133.44628,111.623187 134.554719,113.019951 136.177304,113.019951 C137.882052,113.019951 138.518686,111.931675 138.662345,111.643854 L141.229044,111.643854 C141.106052,112.73213 139.85345,115.340163 136.136475,115.340163 C133.138296,115.340163 130.776247,113.081447 130.776247,109.87761 C130.776247,106.674276 133.117629,104.415057 136.115808,104.415057 C139.812117,104.415057 141.065223,106.961593 141.229044,108.111366 L138.621515,108.111366 C138.477353,107.824049 137.820556,106.735772 136.156637,106.735772" id="Fill-33" fill="#FFFFFF" mask="url(#mask-2)"></path>
                        <path d="M145.829847,108.501966 L151.251067,108.501966 C150.881083,107.187868 149.895636,106.448405 148.560872,106.448405 C147.143945,106.448405 146.157993,107.228698 145.829847,108.501966 M154.003262,110.021722 L154.003262,110.309039 L145.747685,110.309039 C145.870676,111.931624 147.041115,113.163559 148.766026,113.163559 C150.429945,113.163559 151.107408,112.321771 151.2924,112.034454 L153.879766,112.034454 C153.715945,113.102063 152.298514,115.340112 148.766026,115.340112 C145.378205,115.340112 143.118985,112.999234 143.118985,109.877559 C143.118985,106.653559 145.378205,104.415511 148.560872,104.415511 C151.764205,104.415511 154.003262,106.61273 154.003262,110.021722" id="Fill-34" fill="#FFFFFF" mask="url(#mask-2)"></path>
                    </g>
                </g>
            </g>
        </g>
    </g>
</svg>