<?xml version="1.0" encoding="UTF-8"?>
<svg width="370px" height="149px" viewBox="0 0 370 149" version="1.1" xmlns="http://www.w3.org/2000/svg" xmlns:xlink="http://www.w3.org/1999/xlink">
    <!-- Generator: Sketch 42 (36781) - http://www.bohemiancoding.com/sketch -->
    <title>Fill 3</title>
    <desc>Created with Sketch.</desc>
    <defs></defs>
    <g id="Page-1" stroke="none" stroke-width="1" fill="none" fill-rule="evenodd">
        <g id="3" transform="translate(-685.000000, -370.000000)" fill="#FFFFFF">
            <g id="Group-5" transform="translate(685.000000, 370.000000)">
                <path d="M385.3687,36.3193 C375.9437,36.3193 371.7127,27.4513 368.3137,20.3263 C365.3467,14.1053 363.1837,10.0273 360.2847,10.0273 C357.3837,10.0273 355.2217,14.1053 352.2537,20.3263 C348.8537,27.4513 344.6227,36.3193 335.1967,36.3193 C325.7707,36.3193 321.5397,27.4523 318.1397,20.3263 C315.1717,14.1053 313.0097,10.0273 310.1087,10.0273 C307.2087,10.0273 305.0457,14.1053 302.0777,20.3263 C298.6787,27.4523 294.4477,36.3193 285.0207,36.3193 C275.5947,36.3193 271.3647,27.4513 267.9647,20.3263 C264.9967,14.1053 262.8347,10.0273 259.9347,10.0273 C257.0347,10.0273 254.8717,14.1053 251.9047,20.3263 C248.5057,27.4513 244.2747,36.3193 234.8487,36.3193 C225.4227,36.3193 221.1917,27.4513 217.7927,20.3263 C214.8257,14.1053 212.6627,10.0273 209.7637,10.0273 C206.8637,10.0273 204.7007,14.1053 201.7327,20.3263 C198.3337,27.4513 194.1027,36.3193 184.6767,36.3193 C175.2507,36.3193 171.0207,27.4513 167.6217,20.3263 C164.6537,14.1053 162.4917,10.0273 159.5917,10.0273 C156.6917,10.0273 154.5297,14.1053 151.5607,20.3263 C148.1617,27.4513 143.9307,36.3193 134.5047,36.3193 C125.0787,36.3193 120.8477,27.4513 117.4497,20.3263 C114.4817,14.1053 112.3197,10.0273 109.4197,10.0273 C106.5197,10.0273 104.3587,14.1053 101.3907,20.3263 C97.9917,27.4513 93.7617,36.3193 84.3357,36.3193 C74.9107,36.3193 70.6807,27.4513 67.2817,20.3263 C64.3137,14.1053 62.1517,10.0273 59.2527,10.0273 C56.3537,10.0273 54.1917,14.1053 51.2237,20.3263 C47.8257,27.4513 43.5957,36.3193 34.1697,36.3193 C24.7437,36.3193 20.5147,27.4513 17.1157,20.3263 C14.1477,14.1053 11.9857,10.0273 9.0867,10.0273 C6.1857,10.0273 4.0237,14.1053 1.0557,20.3263 C-2.3433,27.4523 -6.5743,36.3193 -16.0003,36.3193 L-16.0003,26.3193 C-13.1003,26.3193 -10.9373,22.2413 -7.9693,16.0203 C-4.5703,8.8953 -0.3393,0.0273 9.0867,0.0273 C18.5117,0.0273 22.7417,8.8953 26.1407,16.0203 C29.1087,22.2413 31.2707,26.3193 34.1697,26.3193 C37.0697,26.3193 39.2307,22.2413 42.1987,16.0203 C45.5977,8.8953 49.8267,0.0273 59.2527,0.0273 C68.6787,0.0273 72.9087,8.8953 76.3067,16.0203 C79.2747,22.2413 81.4367,26.3193 84.3357,26.3193 C87.2357,26.3193 89.3977,22.2413 92.3657,16.0203 C95.7647,8.8953 99.9937,0.0273 109.4197,0.0273 C118.8457,0.0273 123.0757,8.8953 126.4747,16.0203 C129.4427,22.2413 131.6047,26.3193 134.5047,26.3193 C137.4047,26.3193 139.5677,22.2413 142.5357,16.0203 C145.9347,8.8943 150.1657,0.0273 159.5917,0.0273 C169.0177,0.0273 173.2477,8.8953 176.6467,16.0203 C179.6147,22.2413 181.7767,26.3193 184.6767,26.3193 C187.5767,26.3193 189.7397,22.2413 192.7077,16.0203 C196.1067,8.8943 200.3377,0.0273 209.7637,0.0273 C219.1887,0.0273 223.4197,8.8943 226.8187,16.0203 C229.7857,22.2413 231.9487,26.3193 234.8487,26.3193 C237.7487,26.3193 239.9107,22.2413 242.8787,16.0203 C246.2777,8.8953 250.5087,0.0273 259.9347,0.0273 C269.3607,0.0273 273.5907,8.8943 276.9907,16.0203 C279.9587,22.2413 282.1207,26.3193 285.0207,26.3193 C287.9217,26.3193 290.0837,22.2413 293.0527,16.0203 C296.4517,8.8953 300.6827,0.0273 310.1087,0.0273 C319.5357,0.0273 323.7657,8.8953 327.1657,16.0203 C330.1337,22.2413 332.2967,26.3193 335.1967,26.3193 C338.0977,26.3193 340.2597,22.2413 343.2277,16.0203 C346.6277,8.8943 350.8577,0.0273 360.2847,0.0273 C369.7097,0.0273 373.9407,8.8953 377.3397,16.0203 C380.3067,22.2413 382.4697,26.3193 385.3687,26.3193 L385.3687,36.3193 Z M385.3687,73.8803 C375.9437,73.8803 371.7127,65.0113 368.3137,57.8863 C365.3467,51.6663 363.1837,47.5883 360.2847,47.5883 C357.3837,47.5883 355.2217,51.6663 352.2537,57.8863 C348.8537,65.0113 344.6227,73.8803 335.1967,73.8803 C325.7707,73.8803 321.5397,65.0123 318.1397,57.8863 C315.1717,51.6663 313.0097,47.5883 310.1087,47.5883 C307.2087,47.5883 305.0457,51.6663 302.0777,57.8863 C298.6787,65.0123 294.4477,73.8803 285.0207,73.8803 C275.5947,73.8803 271.3647,65.0113 267.9647,57.8863 C264.9967,51.6663 262.8347,47.5883 259.9347,47.5883 C257.0347,47.5883 254.8717,51.6663 251.9047,57.8863 C248.5057,65.0113 244.2747,73.8803 234.8487,73.8803 C225.4227,73.8803 221.1917,65.0113 217.7927,57.8863 C214.8257,51.6663 212.6627,47.5883 209.7637,47.5883 C206.8637,47.5883 204.7007,51.6663 201.7327,57.8863 C198.3337,65.0113 194.1027,73.8803 184.6767,73.8803 C175.2507,73.8803 171.0207,65.0113 167.6217,57.8863 C164.6537,51.6663 162.4917,47.5883 159.5917,47.5883 C156.6917,47.5883 154.5297,51.6663 151.5607,57.8863 C148.1617,65.0113 143.9307,73.8803 134.5047,73.8803 C125.0787,73.8803 120.8477,65.0113 117.4497,57.8863 C114.4817,51.6663 112.3197,47.5883 109.4197,47.5883 C106.5197,47.5883 104.3587,51.6663 101.3907,57.8863 C97.9917,65.0113 93.7617,73.8803 84.3357,73.8803 C74.9107,73.8803 70.6807,65.0113 67.2817,57.8863 C64.3137,51.6663 62.1517,47.5883 59.2527,47.5883 C56.3537,47.5883 54.1917,51.6653 51.2237,57.8863 C47.8257,65.0113 43.5957,73.8803 34.1697,73.8803 C24.7437,73.8803 20.5147,65.0113 17.1157,57.8863 C14.1477,51.6663 11.9857,47.5883 9.0867,47.5883 C6.1857,47.5883 4.0237,51.6663 1.0557,57.8863 C-2.3433,65.0123 -6.5743,73.8803 -16.0003,73.8803 L-16.0003,63.8803 C-13.1003,63.8803 -10.9373,59.8013 -7.9693,53.5813 C-4.5703,46.4563 -0.3393,37.5883 9.0867,37.5883 C18.5117,37.5883 22.7417,46.4563 26.1407,53.5813 C29.1087,59.8013 31.2707,63.8803 34.1697,63.8803 C37.0697,63.8803 39.2307,59.8013 42.1987,53.5813 C45.5977,46.4563 49.8267,37.5883 59.2527,37.5883 C68.6787,37.5883 72.9087,46.4563 76.3067,53.5813 C79.2747,59.8013 81.4367,63.8803 84.3357,63.8803 C87.2357,63.8803 89.3977,59.8013 92.3657,53.5813 C95.7647,46.4563 99.9937,37.5883 109.4197,37.5883 C118.8457,37.5883 123.0757,46.4563 126.4747,53.5813 C129.4427,59.8013 131.6047,63.8803 134.5047,63.8803 C137.4047,63.8803 139.5677,59.8013 142.5357,53.5813 C145.9347,46.4553 150.1657,37.5883 159.5917,37.5883 C169.0177,37.5883 173.2477,46.4563 176.6467,53.5813 C179.6147,59.8013 181.7767,63.8803 184.6767,63.8803 C187.5767,63.8803 189.7397,59.8013 192.7077,53.5813 C196.1067,46.4553 200.3377,37.5883 209.7637,37.5883 C219.1887,37.5883 223.4197,46.4553 226.8187,53.5813 C229.7857,59.8013 231.9487,63.8803 234.8487,63.8803 C237.7487,63.8803 239.9107,59.8013 242.8787,53.5813 C246.2777,46.4563 250.5087,37.5883 259.9347,37.5883 C269.3607,37.5883 273.5907,46.4553 276.9907,53.5813 C279.9587,59.8013 282.1207,63.8803 285.0207,63.8803 C287.9217,63.8803 290.0837,59.8013 293.0527,53.5813 C296.4517,46.4553 300.6827,37.5883 310.1087,37.5883 C319.5357,37.5883 323.7657,46.4553 327.1657,53.5813 C330.1337,59.8013 332.2967,63.8803 335.1967,63.8803 C338.0977,63.8803 340.2597,59.8013 343.2277,53.5813 C346.6277,46.4553 350.8577,37.5883 360.2847,37.5883 C369.7097,37.5883 373.9407,46.4563 377.3397,53.5813 C380.3067,59.8013 382.4697,63.8803 385.3687,63.8803 L385.3687,73.8803 Z M385.3687,111.4393 C375.9437,111.4393 371.7127,102.5713 368.3137,95.4463 C365.3467,89.2253 363.1837,85.1473 360.2847,85.1473 C357.3837,85.1473 355.2217,89.2253 352.2537,95.4463 C348.8537,102.5713 344.6227,111.4393 335.1967,111.4393 C325.7707,111.4393 321.5397,102.5723 318.1397,95.4463 C315.1717,89.2253 313.0097,85.1473 310.1087,85.1473 C307.2087,85.1473 305.0457,89.2253 302.0777,95.4463 C298.6787,102.5723 294.4477,111.4393 285.0207,111.4393 C275.5947,111.4393 271.3647,102.5713 267.9647,95.4463 C264.9967,89.2253 262.8347,85.1473 259.9347,85.1473 C257.0347,85.1473 254.8717,89.2253 251.9047,95.4463 C248.5057,102.5713 244.2747,111.4393 234.8487,111.4393 C225.4227,111.4393 221.1917,102.5713 217.7927,95.4463 C214.8257,89.2253 212.6627,85.1473 209.7637,85.1473 C206.8637,85.1473 204.7007,89.2253 201.7327,95.4463 C198.3337,102.5713 194.1027,111.4393 184.6767,111.4393 C175.2507,111.4393 171.0207,102.5713 167.6217,95.4463 C164.6537,89.2253 162.4917,85.1473 159.5917,85.1473 C156.6917,85.1473 154.5297,89.2253 151.5607,95.4463 C148.1617,102.5713 143.9307,111.4393 134.5047,111.4393 C125.0787,111.4393 120.8477,102.5713 117.4497,95.4463 C114.4817,89.2253 112.3197,85.1473 109.4197,85.1473 C106.5197,85.1473 104.3587,89.2253 101.3907,95.4463 C97.9917,102.5713 93.7617,111.4393 84.3357,111.4393 C74.9107,111.4393 70.6807,102.5713 67.2817,95.4463 C64.3137,89.2253 62.1517,85.1473 59.2527,85.1473 C56.3537,85.1473 54.1917,89.2253 51.2237,95.4463 C47.8257,102.5713 43.5957,111.4393 34.1697,111.4393 C24.7437,111.4393 20.5147,102.5713 17.1157,95.4463 C14.1477,89.2253 11.9857,85.1473 9.0867,85.1473 C6.1857,85.1473 4.0237,89.2253 1.0557,95.4463 C-2.3433,102.5723 -6.5743,111.4393 -16.0003,111.4393 L-16.0003,101.4393 C-13.1003,101.4393 -10.9373,97.3613 -7.9693,91.1403 C-4.5703,84.0153 -0.3393,75.1473 9.0867,75.1473 C18.5117,75.1473 22.7417,84.0153 26.1407,91.1403 C29.1087,97.3613 31.2707,101.4393 34.1697,101.4393 C37.0697,101.4393 39.2307,97.3613 42.1987,91.1403 C45.5977,84.0153 49.8267,75.1473 59.2527,75.1473 C68.6787,75.1473 72.9087,84.0153 76.3067,91.1403 C79.2747,97.3613 81.4367,101.4393 84.3357,101.4393 C87.2357,101.4393 89.3977,97.3613 92.3657,91.1403 C95.7647,84.0153 99.9937,75.1473 109.4197,75.1473 C118.8457,75.1473 123.0757,84.0153 126.4747,91.1403 C129.4427,97.3613 131.6047,101.4393 134.5047,101.4393 C137.4047,101.4393 139.5677,97.3613 142.5357,91.1403 C145.9347,84.0143 150.1657,75.1473 159.5917,75.1473 C169.0177,75.1473 173.2477,84.0153 176.6467,91.1403 C179.6147,97.3613 181.7767,101.4393 184.6767,101.4393 C187.5767,101.4393 189.7397,97.3613 192.7077,91.1403 C196.1067,84.0143 200.3377,75.1473 209.7637,75.1473 C219.1887,75.1473 223.4197,84.0143 226.8187,91.1403 C229.7857,97.3613 231.9487,101.4393 234.8487,101.4393 C237.7487,101.4393 239.9107,97.3613 242.8787,91.1403 C246.2777,84.0153 250.5087,75.1473 259.9347,75.1473 C269.3607,75.1473 273.5907,84.0143 276.9907,91.1403 C279.9587,97.3613 282.1207,101.4393 285.0207,101.4393 C287.9217,101.4393 290.0837,97.3613 293.0527,91.1403 C296.4517,84.0143 300.6827,75.1473 310.1087,75.1473 C319.5357,75.1473 323.7657,84.0143 327.1657,91.1403 C330.1337,97.3613 332.2967,101.4393 335.1967,101.4393 C338.0977,101.4393 340.2597,97.3613 343.2277,91.1403 C346.6277,84.0143 350.8577,75.1473 360.2847,75.1473 C369.7097,75.1473 373.9407,84.0153 377.3397,91.1403 C380.3067,97.3613 382.4697,101.4393 385.3687,101.4393 L385.3687,111.4393 Z M385.3687,149.0003 C375.9437,149.0003 371.7127,140.1323 368.3137,133.0073 C365.3467,126.7863 363.1837,122.7083 360.2847,122.7083 C357.3837,122.7083 355.2217,126.7863 352.2537,133.0073 C348.8537,140.1323 344.6227,149.0003 335.1967,149.0003 C325.7707,149.0003 321.5397,140.1323 318.1397,133.0073 C315.1717,126.7863 313.0097,122.7083 310.1087,122.7083 C307.2087,122.7083 305.0457,126.7863 302.0777,133.0073 C298.6787,140.1323 294.4477,149.0003 285.0207,149.0003 C275.5947,149.0003 271.3647,140.1323 267.9647,133.0073 C264.9967,126.7863 262.8347,122.7083 259.9347,122.7083 C257.0347,122.7083 254.8717,126.7863 251.9047,133.0073 C248.5057,140.1323 244.2747,149.0003 234.8487,149.0003 C225.4227,149.0003 221.1917,140.1323 217.7927,133.0073 C214.8257,126.7863 212.6627,122.7083 209.7637,122.7083 C206.8637,122.7083 204.7007,126.7863 201.7327,133.0073 C198.3337,140.1323 194.1027,149.0003 184.6767,149.0003 C175.2507,149.0003 171.0207,140.1323 167.6217,133.0073 C164.6537,126.7863 162.4917,122.7083 159.5917,122.7083 C156.6917,122.7083 154.5297,126.7863 151.5607,133.0073 C148.1617,140.1323 143.9307,149.0003 134.5047,149.0003 C125.0787,149.0003 120.8477,140.1323 117.4497,133.0073 C114.4817,126.7863 112.3197,122.7083 109.4197,122.7083 C106.5197,122.7083 104.3587,126.7863 101.3907,133.0073 C97.9917,140.1323 93.7617,149.0003 84.3357,149.0003 C74.9107,149.0003 70.6807,140.1323 67.2817,133.0073 C64.3137,126.7863 62.1517,122.7083 59.2527,122.7083 C56.3537,122.7083 54.1917,126.7853 51.2237,133.0073 C47.8257,140.1323 43.5957,149.0003 34.1697,149.0003 C24.7437,149.0003 20.5147,140.1323 17.1157,133.0073 C14.1477,126.7863 11.9857,122.7083 9.0867,122.7083 C6.1857,122.7083 4.0237,126.7863 1.0557,133.0073 C-2.3433,140.1323 -6.5743,149.0003 -16.0003,149.0003 L-16.0003,139.0003 C-13.1003,139.0003 -10.9373,134.9223 -7.9693,128.7013 C-4.5703,121.5763 -0.3393,112.7083 9.0867,112.7083 C18.5117,112.7083 22.7417,121.5763 26.1407,128.7013 C29.1087,134.9223 31.2707,139.0003 34.1697,139.0003 C37.0697,139.0003 39.2307,134.9223 42.1987,128.7013 C45.5977,121.5763 49.8267,112.7083 59.2527,112.7083 C68.6787,112.7083 72.9087,121.5763 76.3067,128.7013 C79.2747,134.9223 81.4367,139.0003 84.3357,139.0003 C87.2357,139.0003 89.3977,134.9223 92.3657,128.7013 C95.7647,121.5763 99.9937,112.7083 109.4197,112.7083 C118.8457,112.7083 123.0757,121.5763 126.4747,128.7013 C129.4427,134.9223 131.6047,139.0003 134.5047,139.0003 C137.4047,139.0003 139.5677,134.9223 142.5357,128.7013 C145.9347,121.5753 150.1657,112.7083 159.5917,112.7083 C169.0177,112.7083 173.2477,121.5763 176.6467,128.7013 C179.6147,134.9223 181.7767,139.0003 184.6767,139.0003 C187.5767,139.0003 189.7397,134.9223 192.7077,128.7013 C196.1067,121.5753 200.3377,112.7083 209.7637,112.7083 C219.1887,112.7083 223.4197,121.5753 226.8187,128.7013 C229.7857,134.9223 231.9487,139.0003 234.8487,139.0003 C237.7487,139.0003 239.9107,134.9223 242.8787,128.7013 C246.2777,121.5763 250.5087,112.7083 259.9347,112.7083 C269.3607,112.7083 273.5907,121.5753 276.9907,128.7013 C279.9587,134.9223 282.1207,139.0003 285.0207,139.0003 C287.9217,139.0003 290.0837,134.9223 293.0527,128.7013 C296.4517,121.5753 300.6827,112.7083 310.1087,112.7083 C319.5357,112.7083 323.7657,121.5753 327.1657,128.7013 C330.1337,134.9223 332.2967,139.0003 335.1967,139.0003 C338.0977,139.0003 340.2597,134.9223 343.2277,128.7013 C346.6277,121.5753 350.8577,112.7083 360.2847,112.7083 C369.7097,112.7083 373.9407,121.5763 377.3397,128.7013 C380.3067,134.9223 382.4697,139.0003 385.3687,139.0003 L385.3687,149.0003 Z" id="Fill-3"></path>
            </g>
        </g>
    </g>
</svg>