<?xml version="1.0" encoding="UTF-8" standalone="no"?><!DOCTYPE svg PUBLIC "-//W3C//DTD SVG 1.1//EN" "http://www.w3.org/Graphics/SVG/1.1/DTD/svg11.dtd"><svg width="100%" height="100%" viewBox="0 0 50 37" version="1.1" xmlns="http://www.w3.org/2000/svg" xmlns:xlink="http://www.w3.org/1999/xlink" xml:space="preserve" style="fill-rule:evenodd;clip-rule:evenodd;stroke-linejoin:round;stroke-miterlimit:1.41421;"><rect id="waves" x="0" y="0" width="50" height="37" style="fill:none;"/><clipPath id="_clip1"><rect x="0" y="0" width="50" height="37"/></clipPath><g clip-path="url(#_clip1)"><path id="Fill-3" d="M158.536,15.993c3.399,-7.126 11.994,-1.915 9.025,4.306c-3.399,7.125 -7.63,15.993 -17.056,15.993c-9.426,0 -13.657,-8.868 -17.055,-15.993c-2.968,-6.221 -5.13,-10.299 -8.03,-10.299c-2.9,0 -5.061,4.078 -8.029,10.299c-3.399,7.125 -7.629,15.993 -17.055,15.993c-9.425,0 -13.655,-8.868 -17.054,-15.993c-2.968,-6.221 -5.13,-10.299 -8.029,-10.299c-2.899,0 -5.061,4.078 -8.029,10.299c-3.398,7.125 -7.628,15.993 -17.054,15.993c-9.426,0 -13.655,-8.868 -17.054,-15.993c-2.968,-6.221 -5.13,-10.299 -8.029,-10.299c-2.901,0 -5.063,4.078 -8.031,10.299c-3.399,7.126 -7.63,15.993 -17.056,15.993l0,-10c2.9,0 5.063,-4.078 8.031,-10.299c3.399,-7.125 7.63,-15.993 17.056,-15.993c9.425,0 13.655,8.868 17.054,15.993c2.968,6.221 5.13,10.299 8.029,10.299c2.9,0 5.061,-4.078 8.029,-10.299c3.399,-7.125 7.628,-15.993 17.054,-15.993c9.426,0 13.656,8.868 17.054,15.993c2.968,6.221 5.13,10.299 8.029,10.299c2.9,0 5.062,-4.078 8.03,-10.299c3.399,-7.125 7.628,-15.993 17.054,-15.993c9.426,0 13.656,8.868 17.055,15.993c2.968,6.221 5.13,10.299 8.03,10.299c2.9,0 5.063,-4.078 8.031,-10.299Z" style="fill:#fff;"/></g></svg>